<svg width="20" height="20" viewBox="0 0 20 20" fill="none" xmlns="http://www.w3.org/2000/svg">
<path fill-rule="evenodd" clip-rule="evenodd" d="M1.25 10C1.25 14.8325 5.16751 18.75 10 18.75C14.8325 18.75 18.75 14.8325 18.75 10C18.75 5.16751 14.8325 1.25 10 1.25C5.16751 1.25 1.25 5.16751 1.25 10ZM20 10C20 15.5228 15.5228 20 10 20C4.47715 20 0 15.5228 0 10C0 4.47715 4.47715 0 10 0C15.5228 0 20 4.47715 20 10ZM7.31693 13.5041C7.07285 13.7482 6.67712 13.7482 6.43305 13.5041C6.18897 13.26 6.18897 12.8643 6.43305 12.6202L11.5533 7.49999L8.09363 7.49999C7.74845 7.49999 7.46863 7.22017 7.46863 6.87499C7.46863 6.52981 7.74845 6.24999 8.09363 6.24999L13.0622 6.24999C13.4073 6.24999 13.6872 6.52981 13.6872 6.87499V11.8436C13.6872 12.1888 13.4073 12.4686 13.0622 12.4686C12.717 12.4686 12.4372 12.1888 12.4372 11.8436L12.4372 8.38387L7.31693 13.5041Z" fill="black"/>
</svg>
