<svg width="433" height="69" viewBox="0 0 433 69" fill="none" xmlns="http://www.w3.org/2000/svg">
<path fill-rule="evenodd" clip-rule="evenodd" d="M51.5909 47.7929L51.5933 47.7847C52.8146 43.6235 53.4185 39.1918 53.4185 34.5V0H0V13.2857H42.9585V34.5C42.9585 38.5394 42.2671 42.175 40.9149 45.4334L40.9116 45.4414C39.5915 48.6615 37.8252 51.1707 35.6464 53.0388C33.5197 54.8623 31.2593 55.7143 28.8087 55.7143H0V69H28.8087C32.326 69 35.6149 68.0598 38.6373 66.1993C41.6578 64.3664 44.2654 61.8413 46.4711 58.6707C48.6737 55.5047 50.3749 51.8715 51.5909 47.7929ZM56.2675 69H107.037V55.7143H66.7274V41.1429H101.546V27.8571H66.7274V13.2857H107.037V0H56.2675V69ZM113.026 0H107.796V69H118.255V14.3075C120.215 15.0118 122.322 16.0964 124.581 17.5952L124.592 17.6023L124.603 17.6093C127.8 19.6715 130.97 22.3747 134.107 25.7419L134.118 25.7534L134.129 25.7646C137.288 29.0505 140.169 32.8587 142.77 37.1993L142.776 37.2098C145.353 41.4518 147.419 46.1248 148.967 51.2368L148.97 51.2472L148.973 51.2575C150.546 56.2547 151.335 61.4993 151.335 67V69H161.795V0H151.335V29.4367C149.826 26.843 148.183 24.3835 146.405 22.0593C143.055 17.563 139.469 13.6769 135.641 10.4137C131.827 7.16283 127.976 4.61236 124.084 2.79048C120.232 0.966903 116.537 0 113.026 0ZM165.443 69H175.903V14.3075C177.862 15.0118 179.97 16.0964 182.229 17.5952L182.239 17.6023L182.25 17.6093C185.448 19.6715 188.617 22.3747 191.755 25.7419L191.765 25.7534L191.776 25.7646C194.935 29.0505 197.817 32.8587 200.417 37.1993L200.423 37.2098C203 41.4518 205.066 46.1248 206.614 51.2368L206.617 51.2472L206.62 51.2575C208.193 56.2547 208.983 61.4993 208.983 67V69H219.443V0H208.983V29.4367C207.473 26.843 205.83 24.3835 204.052 22.0593C200.703 17.563 197.116 13.6769 193.288 10.4137C189.474 7.16264 185.623 4.61206 181.731 2.79016C177.879 0.966789 174.184 0 170.673 0H165.443V69ZM221.346 55.7143V69H259.457C262.83 69 265.935 68.0436 268.722 66.146C271.47 64.2754 273.627 61.7846 275.192 58.716C276.809 55.5692 277.607 52.1286 277.607 48.4286V0H267.147V32.5H239.496C238.246 32.5 237.053 32.0771 235.867 31.1066C234.697 30.1139 233.712 28.732 232.953 26.8803C232.195 24.9713 231.806 22.8752 231.806 20.5714V0H221.346V20.5714C221.346 25.0749 222.119 29.2393 223.695 33.038L223.7 33.0496C225.262 36.7472 227.364 39.7988 230.041 42.1354L230.048 42.1412L230.055 42.1469C232.837 44.533 236.003 45.7857 239.496 45.7857H267.147V48.4286C267.147 49.7165 266.805 50.8927 266.102 51.9991L266.09 52.0175L266.079 52.0362C265.398 53.1624 264.485 54.0693 263.311 54.7696C262.166 55.3929 260.894 55.7143 259.457 55.7143H221.346ZM324.401 36.7189L346.671 69H366.748V0H344.943L312.318 33.3136V0H301.858V69H312.318V49.2364L324.401 36.7189ZM332.152 28.6724L356.288 3.76614V63.2829L332.152 28.6724ZM396.442 69H406.902V34.5C406.902 30.4606 407.593 26.825 408.945 23.5666C410.313 20.271 412.081 17.7677 414.205 15.969L414.214 15.9612C416.341 14.1377 418.601 13.2857 421.052 13.2857H422.54V69H433V0H421.052C416.439 0 412.223 1.65533 408.456 4.83623L408.447 4.8443C405.759 7.14319 403.503 9.94483 401.67 13.225C399.826 9.94224 397.549 7.1394 394.828 4.8404C391.101 1.65501 386.904 0 382.292 0H370.344V69H380.804V13.2857H382.292C384.743 13.2857 387.003 14.1377 389.13 15.9612L389.141 15.9707L389.152 15.9802C391.308 17.7744 393.069 20.2671 394.39 23.5472L394.394 23.5569L394.398 23.5666C395.75 26.825 396.442 30.4606 396.442 34.5V69Z" fill="black"/>
</svg>
