<svg width="433" height="69" viewBox="0 0 433 69" fill="none" xmlns="http://www.w3.org/2000/svg">
<mask id="path-1-outside-1_736_29" maskUnits="userSpaceOnUse" x="0" y="0" width="433" height="69" fill="black">
<rect fill="white" width="433" height="69"/>
<path d="M51.4185 34.5C51.4185 39.019 50.8371 43.2595 49.6743 47.2214C48.5115 51.1214 46.8965 54.5571 44.8293 57.5286C42.7622 60.5 40.3505 62.8214 37.5942 64.4929C34.8811 66.1643 31.9526 67 28.8087 67H2V57.7143H28.8087C31.7803 57.7143 34.4935 56.6619 36.9482 54.5571C39.403 52.4524 41.341 49.6667 42.7622 46.2C44.2264 42.6714 44.9585 38.7714 44.9585 34.5V11.2857H2V2H51.4185V34.5Z"/>
<path d="M105.037 67H58.2675V2H105.037V11.2857H64.7274V57.7143H105.037V67ZM99.5465 39.1429H67.9574V29.8571H99.5465V39.1429Z"/>
<path d="M116.255 67H109.796V2H113.026C116.169 2 119.572 2.86667 123.232 4.6C126.936 6.33333 130.64 8.77857 134.343 11.9357C138.047 15.0929 141.535 18.869 144.808 23.2643C148.124 27.5976 150.967 32.4262 153.336 37.75V2H159.795V67H153.336C153.336 61.3048 152.517 55.8571 150.881 50.6571C149.287 45.3952 147.156 40.5667 144.485 36.1714C141.815 31.7143 138.844 27.7833 135.571 24.3786C132.341 20.9119 129.046 18.0952 125.687 15.9286C122.328 13.7 119.184 12.2762 116.255 11.6571V67Z"/>
<path d="M173.903 67H167.443V2H170.673C173.817 2 177.219 2.86667 180.88 4.6C184.583 6.33333 188.287 8.77857 191.991 11.9357C195.694 15.0929 199.183 18.869 202.456 23.2643C205.772 27.5976 208.614 32.4262 210.983 37.75V2H217.443V67H210.983C210.983 61.3048 210.165 55.8571 208.528 50.6571C206.935 45.3952 204.803 40.5667 202.133 36.1714C199.463 31.7143 196.491 27.7833 193.218 24.3786C189.988 20.9119 186.693 18.0952 183.334 15.9286C179.975 13.7 176.831 12.2762 173.903 11.6571V67Z"/>
<path d="M275.607 48.4286C275.607 51.8333 274.875 54.9595 273.41 57.8071C271.989 60.5929 270.051 62.8214 267.597 64.4929C265.142 66.1643 262.429 67 259.457 67H223.346V57.7143H259.457C261.223 57.7143 262.838 57.3119 264.302 56.5071C265.766 55.6405 266.929 54.4952 267.79 53.0714C268.695 51.6476 269.147 50.1 269.147 48.4286V43.7857H239.496C236.524 43.7857 233.811 42.7333 231.356 40.6286C228.945 38.5238 227.007 35.7381 225.542 32.2714C224.078 28.7429 223.346 24.8429 223.346 20.5714V2H229.806V20.5714C229.806 23.1095 230.237 25.4619 231.098 27.6286C231.959 29.7333 233.122 31.4048 234.586 32.6429C236.094 33.881 237.73 34.5 239.496 34.5H269.147V2H275.607V48.4286Z"/>
<path d="M356.442 67H347.721L324.659 33.5714L310.318 48.4286V67H303.858V2H310.318V38.2143L345.783 2H355.215L329.569 28.4643L356.442 67Z"/>
<path d="M364.748 67H358.288V2H364.748V67Z"/>
<path d="M404.902 67H398.442V34.5C398.442 30.2286 397.71 26.3286 396.246 22.8C394.824 19.2714 392.886 16.4857 390.432 14.4429C387.977 12.3381 385.264 11.2857 382.292 11.2857H378.804V67H372.344V2H382.292C386.383 2 390.13 3.45476 393.532 6.36428C396.978 9.27381 399.691 13.081 401.672 17.7857C403.653 13.081 406.345 9.27381 409.747 6.36428C413.192 3.45476 416.96 2 421.052 2H431V67H424.54V11.2857H421.052C418.08 11.2857 415.367 12.3381 412.912 14.4429C410.5 16.4857 408.562 19.2714 407.098 22.8C405.634 26.3286 404.902 30.2286 404.902 34.5V67Z"/>
</mask>
<path d="M51.4185 34.5C51.4185 39.019 50.8371 43.2595 49.6743 47.2214C48.5115 51.1214 46.8965 54.5571 44.8293 57.5286C42.7622 60.5 40.3505 62.8214 37.5942 64.4929C34.8811 66.1643 31.9526 67 28.8087 67H2V57.7143H28.8087C31.7803 57.7143 34.4935 56.6619 36.9482 54.5571C39.403 52.4524 41.341 49.6667 42.7622 46.2C44.2264 42.6714 44.9585 38.7714 44.9585 34.5V11.2857H2V2H51.4185V34.5Z" fill="black"/>
<path d="M105.037 67H58.2675V2H105.037V11.2857H64.7274V57.7143H105.037V67ZM99.5465 39.1429H67.9574V29.8571H99.5465V39.1429Z" fill="black"/>
<path d="M116.255 67H109.796V2H113.026C116.169 2 119.572 2.86667 123.232 4.6C126.936 6.33333 130.64 8.77857 134.343 11.9357C138.047 15.0929 141.535 18.869 144.808 23.2643C148.124 27.5976 150.967 32.4262 153.336 37.75V2H159.795V67H153.336C153.336 61.3048 152.517 55.8571 150.881 50.6571C149.287 45.3952 147.156 40.5667 144.485 36.1714C141.815 31.7143 138.844 27.7833 135.571 24.3786C132.341 20.9119 129.046 18.0952 125.687 15.9286C122.328 13.7 119.184 12.2762 116.255 11.6571V67Z" fill="black"/>
<path d="M173.903 67H167.443V2H170.673C173.817 2 177.219 2.86667 180.88 4.6C184.583 6.33333 188.287 8.77857 191.991 11.9357C195.694 15.0929 199.183 18.869 202.456 23.2643C205.772 27.5976 208.614 32.4262 210.983 37.75V2H217.443V67H210.983C210.983 61.3048 210.165 55.8571 208.528 50.6571C206.935 45.3952 204.803 40.5667 202.133 36.1714C199.463 31.7143 196.491 27.7833 193.218 24.3786C189.988 20.9119 186.693 18.0952 183.334 15.9286C179.975 13.7 176.831 12.2762 173.903 11.6571V67Z" fill="black"/>
<path d="M275.607 48.4286C275.607 51.8333 274.875 54.9595 273.41 57.8071C271.989 60.5929 270.051 62.8214 267.597 64.4929C265.142 66.1643 262.429 67 259.457 67H223.346V57.7143H259.457C261.223 57.7143 262.838 57.3119 264.302 56.5071C265.766 55.6405 266.929 54.4952 267.79 53.0714C268.695 51.6476 269.147 50.1 269.147 48.4286V43.7857H239.496C236.524 43.7857 233.811 42.7333 231.356 40.6286C228.945 38.5238 227.007 35.7381 225.542 32.2714C224.078 28.7429 223.346 24.8429 223.346 20.5714V2H229.806V20.5714C229.806 23.1095 230.237 25.4619 231.098 27.6286C231.959 29.7333 233.122 31.4048 234.586 32.6429C236.094 33.881 237.73 34.5 239.496 34.5H269.147V2H275.607V48.4286Z" fill="black"/>
<path d="M356.442 67H347.721L324.659 33.5714L310.318 48.4286V67H303.858V2H310.318V38.2143L345.783 2H355.215L329.569 28.4643L356.442 67Z" fill="black"/>
<path d="M364.748 67H358.288V2H364.748V67Z" fill="black"/>
<path d="M404.902 67H398.442V34.5C398.442 30.2286 397.71 26.3286 396.246 22.8C394.824 19.2714 392.886 16.4857 390.432 14.4429C387.977 12.3381 385.264 11.2857 382.292 11.2857H378.804V67H372.344V2H382.292C386.383 2 390.13 3.45476 393.532 6.36428C396.978 9.27381 399.691 13.081 401.672 17.7857C403.653 13.081 406.345 9.27381 409.747 6.36428C413.192 3.45476 416.96 2 421.052 2H431V67H424.54V11.2857H421.052C418.08 11.2857 415.367 12.3381 412.912 14.4429C410.5 16.4857 408.562 19.2714 407.098 22.8C405.634 26.3286 404.902 30.2286 404.902 34.5V67Z" fill="black"/>
<path d="M51.4185 34.5C51.4185 39.019 50.8371 43.2595 49.6743 47.2214C48.5115 51.1214 46.8965 54.5571 44.8293 57.5286C42.7622 60.5 40.3505 62.8214 37.5942 64.4929C34.8811 66.1643 31.9526 67 28.8087 67H2V57.7143H28.8087C31.7803 57.7143 34.4935 56.6619 36.9482 54.5571C39.403 52.4524 41.341 49.6667 42.7622 46.2C44.2264 42.6714 44.9585 38.7714 44.9585 34.5V11.2857H2V2H51.4185V34.5Z" stroke="black" stroke-width="4" mask="url(#path-1-outside-1_736_29)"/>
<path d="M105.037 67H58.2675V2H105.037V11.2857H64.7274V57.7143H105.037V67ZM99.5465 39.1429H67.9574V29.8571H99.5465V39.1429Z" stroke="black" stroke-width="4" mask="url(#path-1-outside-1_736_29)"/>
<path d="M116.255 67H109.796V2H113.026C116.169 2 119.572 2.86667 123.232 4.6C126.936 6.33333 130.64 8.77857 134.343 11.9357C138.047 15.0929 141.535 18.869 144.808 23.2643C148.124 27.5976 150.967 32.4262 153.336 37.75V2H159.795V67H153.336C153.336 61.3048 152.517 55.8571 150.881 50.6571C149.287 45.3952 147.156 40.5667 144.485 36.1714C141.815 31.7143 138.844 27.7833 135.571 24.3786C132.341 20.9119 129.046 18.0952 125.687 15.9286C122.328 13.7 119.184 12.2762 116.255 11.6571V67Z" stroke="black" stroke-width="4" mask="url(#path-1-outside-1_736_29)"/>
<path d="M173.903 67H167.443V2H170.673C173.817 2 177.219 2.86667 180.88 4.6C184.583 6.33333 188.287 8.77857 191.991 11.9357C195.694 15.0929 199.183 18.869 202.456 23.2643C205.772 27.5976 208.614 32.4262 210.983 37.75V2H217.443V67H210.983C210.983 61.3048 210.165 55.8571 208.528 50.6571C206.935 45.3952 204.803 40.5667 202.133 36.1714C199.463 31.7143 196.491 27.7833 193.218 24.3786C189.988 20.9119 186.693 18.0952 183.334 15.9286C179.975 13.7 176.831 12.2762 173.903 11.6571V67Z" stroke="black" stroke-width="4" mask="url(#path-1-outside-1_736_29)"/>
<path d="M275.607 48.4286C275.607 51.8333 274.875 54.9595 273.41 57.8071C271.989 60.5929 270.051 62.8214 267.597 64.4929C265.142 66.1643 262.429 67 259.457 67H223.346V57.7143H259.457C261.223 57.7143 262.838 57.3119 264.302 56.5071C265.766 55.6405 266.929 54.4952 267.79 53.0714C268.695 51.6476 269.147 50.1 269.147 48.4286V43.7857H239.496C236.524 43.7857 233.811 42.7333 231.356 40.6286C228.945 38.5238 227.007 35.7381 225.542 32.2714C224.078 28.7429 223.346 24.8429 223.346 20.5714V2H229.806V20.5714C229.806 23.1095 230.237 25.4619 231.098 27.6286C231.959 29.7333 233.122 31.4048 234.586 32.6429C236.094 33.881 237.73 34.5 239.496 34.5H269.147V2H275.607V48.4286Z" stroke="black" stroke-width="4" mask="url(#path-1-outside-1_736_29)"/>
<path d="M356.442 67H347.721L324.659 33.5714L310.318 48.4286V67H303.858V2H310.318V38.2143L345.783 2H355.215L329.569 28.4643L356.442 67Z" stroke="black" stroke-width="4" mask="url(#path-1-outside-1_736_29)"/>
<path d="M364.748 67H358.288V2H364.748V67Z" stroke="black" stroke-width="4" mask="url(#path-1-outside-1_736_29)"/>
<path d="M404.902 67H398.442V34.5C398.442 30.2286 397.71 26.3286 396.246 22.8C394.824 19.2714 392.886 16.4857 390.432 14.4429C387.977 12.3381 385.264 11.2857 382.292 11.2857H378.804V67H372.344V2H382.292C386.383 2 390.13 3.45476 393.532 6.36428C396.978 9.27381 399.691 13.081 401.672 17.7857C403.653 13.081 406.345 9.27381 409.747 6.36428C413.192 3.45476 416.96 2 421.052 2H431V67H424.54V11.2857H421.052C418.08 11.2857 415.367 12.3381 412.912 14.4429C410.5 16.4857 408.562 19.2714 407.098 22.8C405.634 26.3286 404.902 30.2286 404.902 34.5V67Z" stroke="black" stroke-width="4" mask="url(#path-1-outside-1_736_29)"/>
</svg>
