<svg width="433" height="50" viewBox="0 0 433 50" fill="none" xmlns="http://www.w3.org/2000/svg">
<mask id="path-1-outside-1_663_1143" maskUnits="userSpaceOnUse" x="0" y="0" width="433" height="50" fill="black">
<rect fill="white" width="433" height="50"/>
<path d="M51.4185 25C51.4185 28.1981 50.8371 31.199 49.6743 34.0029C48.5115 36.7629 46.8965 39.1943 44.8293 41.2971C42.7622 43.4 40.3505 45.0429 37.5942 46.2257C34.8811 47.4086 31.9526 48 28.8087 48H2V41.4286H28.8087C31.7803 41.4286 34.4935 40.6838 36.9482 39.1943C39.403 37.7048 41.341 35.7333 42.7622 33.28C44.2264 30.7829 44.9585 28.0229 44.9585 25V8.57143H2V2H51.4185V25Z"/>
<path d="M105.037 48H58.2675V2H105.037V8.57143H64.7274V41.4286H105.037V48ZM99.5465 28.2857H67.9574V21.7143H99.5465V28.2857Z"/>
<path d="M116.255 48H109.796V2H113.026C116.169 2 119.572 2.61333 123.232 3.84C126.936 5.06667 130.64 6.79714 134.343 9.03143C138.047 11.2657 141.535 13.9381 144.808 17.0486C148.124 20.1152 150.967 23.5324 153.336 27.3V2H159.795V48H153.336C153.336 43.9695 152.517 40.1143 150.881 36.4343C149.287 32.7105 147.156 29.2933 144.485 26.1829C141.815 23.0286 138.844 20.2467 135.571 17.8371C132.341 15.3838 129.046 13.3905 125.687 11.8571C122.328 10.28 119.184 9.27238 116.255 8.83429V48Z"/>
<path d="M173.903 48H167.443V2H170.673C173.817 2 177.219 2.61333 180.88 3.84C184.583 5.06667 188.287 6.79714 191.991 9.03143C195.694 11.2657 199.183 13.9381 202.456 17.0486C205.772 20.1152 208.614 23.5324 210.983 27.3V2H217.443V48H210.983C210.983 43.9695 210.165 40.1143 208.528 36.4343C206.935 32.7105 204.803 29.2933 202.133 26.1829C199.463 23.0286 196.491 20.2467 193.218 17.8371C189.988 15.3838 186.693 13.3905 183.334 11.8571C179.975 10.28 176.831 9.27238 173.903 8.83429V48Z"/>
<path d="M275.607 34.8571C275.607 37.2667 274.875 39.479 273.41 41.4943C271.989 43.4657 270.051 45.0429 267.597 46.2257C265.142 47.4086 262.429 48 259.457 48H223.346V41.4286H259.457C261.223 41.4286 262.838 41.1438 264.302 40.5743C265.766 39.961 266.929 39.1505 267.79 38.1429C268.695 37.1352 269.147 36.04 269.147 34.8571V31.5714H239.496C236.524 31.5714 233.811 30.8267 231.356 29.3371C228.945 27.8476 227.007 25.8762 225.542 23.4229C224.078 20.9257 223.346 18.1657 223.346 15.1429V2H229.806V15.1429C229.806 16.939 230.237 18.6038 231.098 20.1371C231.959 21.6267 233.122 22.8095 234.586 23.6857C236.094 24.5619 237.73 25 239.496 25H269.147V2H275.607V34.8571Z"/>
<path d="M356.442 48H347.721L324.659 24.3429L310.318 34.8571V48H303.858V2H310.318V27.6286L345.783 2H355.215L329.569 20.7286L356.442 48Z"/>
<path d="M364.748 48H358.288V2H364.748V48Z"/>
<path d="M404.902 48H398.442V25C398.442 21.9771 397.71 19.2171 396.246 16.72C394.824 14.2229 392.886 12.2514 390.432 10.8057C387.977 9.31619 385.264 8.57143 382.292 8.57143H378.804V48H372.344V2H382.292C386.383 2 390.13 3.02952 393.532 5.08857C396.978 7.14762 399.691 9.84191 401.672 13.1714C403.653 9.84191 406.345 7.14762 409.747 5.08857C413.192 3.02952 416.96 2 421.052 2H431V48H424.54V8.57143H421.052C418.08 8.57143 415.367 9.31619 412.912 10.8057C410.5 12.2514 408.562 14.2229 407.098 16.72C405.634 19.2171 404.902 21.9771 404.902 25V48Z"/>
</mask>
<path d="M51.4185 25C51.4185 28.1981 50.8371 31.199 49.6743 34.0029C48.5115 36.7629 46.8965 39.1943 44.8293 41.2971C42.7622 43.4 40.3505 45.0429 37.5942 46.2257C34.8811 47.4086 31.9526 48 28.8087 48H2V41.4286H28.8087C31.7803 41.4286 34.4935 40.6838 36.9482 39.1943C39.403 37.7048 41.341 35.7333 42.7622 33.28C44.2264 30.7829 44.9585 28.0229 44.9585 25V8.57143H2V2H51.4185V25Z" fill="black"/>
<path d="M105.037 48H58.2675V2H105.037V8.57143H64.7274V41.4286H105.037V48ZM99.5465 28.2857H67.9574V21.7143H99.5465V28.2857Z" fill="black"/>
<path d="M116.255 48H109.796V2H113.026C116.169 2 119.572 2.61333 123.232 3.84C126.936 5.06667 130.64 6.79714 134.343 9.03143C138.047 11.2657 141.535 13.9381 144.808 17.0486C148.124 20.1152 150.967 23.5324 153.336 27.3V2H159.795V48H153.336C153.336 43.9695 152.517 40.1143 150.881 36.4343C149.287 32.7105 147.156 29.2933 144.485 26.1829C141.815 23.0286 138.844 20.2467 135.571 17.8371C132.341 15.3838 129.046 13.3905 125.687 11.8571C122.328 10.28 119.184 9.27238 116.255 8.83429V48Z" fill="black"/>
<path d="M173.903 48H167.443V2H170.673C173.817 2 177.219 2.61333 180.88 3.84C184.583 5.06667 188.287 6.79714 191.991 9.03143C195.694 11.2657 199.183 13.9381 202.456 17.0486C205.772 20.1152 208.614 23.5324 210.983 27.3V2H217.443V48H210.983C210.983 43.9695 210.165 40.1143 208.528 36.4343C206.935 32.7105 204.803 29.2933 202.133 26.1829C199.463 23.0286 196.491 20.2467 193.218 17.8371C189.988 15.3838 186.693 13.3905 183.334 11.8571C179.975 10.28 176.831 9.27238 173.903 8.83429V48Z" fill="black"/>
<path d="M275.607 34.8571C275.607 37.2667 274.875 39.479 273.41 41.4943C271.989 43.4657 270.051 45.0429 267.597 46.2257C265.142 47.4086 262.429 48 259.457 48H223.346V41.4286H259.457C261.223 41.4286 262.838 41.1438 264.302 40.5743C265.766 39.961 266.929 39.1505 267.79 38.1429C268.695 37.1352 269.147 36.04 269.147 34.8571V31.5714H239.496C236.524 31.5714 233.811 30.8267 231.356 29.3371C228.945 27.8476 227.007 25.8762 225.542 23.4229C224.078 20.9257 223.346 18.1657 223.346 15.1429V2H229.806V15.1429C229.806 16.939 230.237 18.6038 231.098 20.1371C231.959 21.6267 233.122 22.8095 234.586 23.6857C236.094 24.5619 237.73 25 239.496 25H269.147V2H275.607V34.8571Z" fill="black"/>
<path d="M356.442 48H347.721L324.659 24.3429L310.318 34.8571V48H303.858V2H310.318V27.6286L345.783 2H355.215L329.569 20.7286L356.442 48Z" fill="black"/>
<path d="M364.748 48H358.288V2H364.748V48Z" fill="black"/>
<path d="M404.902 48H398.442V25C398.442 21.9771 397.71 19.2171 396.246 16.72C394.824 14.2229 392.886 12.2514 390.432 10.8057C387.977 9.31619 385.264 8.57143 382.292 8.57143H378.804V48H372.344V2H382.292C386.383 2 390.13 3.02952 393.532 5.08857C396.978 7.14762 399.691 9.84191 401.672 13.1714C403.653 9.84191 406.345 7.14762 409.747 5.08857C413.192 3.02952 416.96 2 421.052 2H431V48H424.54V8.57143H421.052C418.08 8.57143 415.367 9.31619 412.912 10.8057C410.5 12.2514 408.562 14.2229 407.098 16.72C405.634 19.2171 404.902 21.9771 404.902 25V48Z" fill="black"/>
<path d="M51.4185 25C51.4185 28.1981 50.8371 31.199 49.6743 34.0029C48.5115 36.7629 46.8965 39.1943 44.8293 41.2971C42.7622 43.4 40.3505 45.0429 37.5942 46.2257C34.8811 47.4086 31.9526 48 28.8087 48H2V41.4286H28.8087C31.7803 41.4286 34.4935 40.6838 36.9482 39.1943C39.403 37.7048 41.341 35.7333 42.7622 33.28C44.2264 30.7829 44.9585 28.0229 44.9585 25V8.57143H2V2H51.4185V25Z" stroke="black" stroke-width="4" mask="url(#path-1-outside-1_663_1143)"/>
<path d="M105.037 48H58.2675V2H105.037V8.57143H64.7274V41.4286H105.037V48ZM99.5465 28.2857H67.9574V21.7143H99.5465V28.2857Z" stroke="black" stroke-width="4" mask="url(#path-1-outside-1_663_1143)"/>
<path d="M116.255 48H109.796V2H113.026C116.169 2 119.572 2.61333 123.232 3.84C126.936 5.06667 130.64 6.79714 134.343 9.03143C138.047 11.2657 141.535 13.9381 144.808 17.0486C148.124 20.1152 150.967 23.5324 153.336 27.3V2H159.795V48H153.336C153.336 43.9695 152.517 40.1143 150.881 36.4343C149.287 32.7105 147.156 29.2933 144.485 26.1829C141.815 23.0286 138.844 20.2467 135.571 17.8371C132.341 15.3838 129.046 13.3905 125.687 11.8571C122.328 10.28 119.184 9.27238 116.255 8.83429V48Z" stroke="black" stroke-width="4" mask="url(#path-1-outside-1_663_1143)"/>
<path d="M173.903 48H167.443V2H170.673C173.817 2 177.219 2.61333 180.88 3.84C184.583 5.06667 188.287 6.79714 191.991 9.03143C195.694 11.2657 199.183 13.9381 202.456 17.0486C205.772 20.1152 208.614 23.5324 210.983 27.3V2H217.443V48H210.983C210.983 43.9695 210.165 40.1143 208.528 36.4343C206.935 32.7105 204.803 29.2933 202.133 26.1829C199.463 23.0286 196.491 20.2467 193.218 17.8371C189.988 15.3838 186.693 13.3905 183.334 11.8571C179.975 10.28 176.831 9.27238 173.903 8.83429V48Z" stroke="black" stroke-width="4" mask="url(#path-1-outside-1_663_1143)"/>
<path d="M275.607 34.8571C275.607 37.2667 274.875 39.479 273.41 41.4943C271.989 43.4657 270.051 45.0429 267.597 46.2257C265.142 47.4086 262.429 48 259.457 48H223.346V41.4286H259.457C261.223 41.4286 262.838 41.1438 264.302 40.5743C265.766 39.961 266.929 39.1505 267.79 38.1429C268.695 37.1352 269.147 36.04 269.147 34.8571V31.5714H239.496C236.524 31.5714 233.811 30.8267 231.356 29.3371C228.945 27.8476 227.007 25.8762 225.542 23.4229C224.078 20.9257 223.346 18.1657 223.346 15.1429V2H229.806V15.1429C229.806 16.939 230.237 18.6038 231.098 20.1371C231.959 21.6267 233.122 22.8095 234.586 23.6857C236.094 24.5619 237.73 25 239.496 25H269.147V2H275.607V34.8571Z" stroke="black" stroke-width="4" mask="url(#path-1-outside-1_663_1143)"/>
<path d="M356.442 48H347.721L324.659 24.3429L310.318 34.8571V48H303.858V2H310.318V27.6286L345.783 2H355.215L329.569 20.7286L356.442 48Z" stroke="black" stroke-width="4" mask="url(#path-1-outside-1_663_1143)"/>
<path d="M364.748 48H358.288V2H364.748V48Z" stroke="black" stroke-width="4" mask="url(#path-1-outside-1_663_1143)"/>
<path d="M404.902 48H398.442V25C398.442 21.9771 397.71 19.2171 396.246 16.72C394.824 14.2229 392.886 12.2514 390.432 10.8057C387.977 9.31619 385.264 8.57143 382.292 8.57143H378.804V48H372.344V2H382.292C386.383 2 390.13 3.02952 393.532 5.08857C396.978 7.14762 399.691 9.84191 401.672 13.1714C403.653 9.84191 406.345 7.14762 409.747 5.08857C413.192 3.02952 416.96 2 421.052 2H431V48H424.54V8.57143H421.052C418.08 8.57143 415.367 9.31619 412.912 10.8057C410.5 12.2514 408.562 14.2229 407.098 16.72C405.634 19.2171 404.902 21.9771 404.902 25V48Z" stroke="black" stroke-width="4" mask="url(#path-1-outside-1_663_1143)"/>
</svg>
